<svg viewBox="0,0,1000,600" width="1000px" height="600px" xmlns="http://www.w3.org/2000/svg" xmlns:xlink="http://www.w3.org/1999/xlink"><path transform="translate(500,300)" d="M0,-1.2495984279584176e-16A60.0609665440988,60.0609665440988,0,1,1,120.1219330881976,7.105427357601002e-15A120.1219330881976,120.1219330881976,0,0,1,48.25243092199915,110.00446226841491A60.0609665440988,60.0609665440988,0,1,1,0,1.4210854715202004e-14L0,0Z" style="stroke: rgb(8, 48, 107); fill: rgb(8, 48, 107); fill-opacity: 0.6; stroke-width: 2px;"><title>Visualization.Techniques
1</title></path><path transform="translate(500,300)" d="M-53.77790467634756,23.589176084454007A45.70675091059877,45.70675091059877,0,1,1,-36.069048696444085,-46.34151471256895L0,0Z" style="stroke: rgb(63, 0, 125); fill: rgb(63, 0, 125); fill-opacity: 0.6; stroke-width: 2px;"><title>Stimulus.Effect
1</title></path><path transform="translate(500,300)" d="M-52.67820620585877,-67.68096071691556A29.443303043666955,29.443303043666955,0,1,1,-1.1013412404281553e-13,-85.76541174991026L0,0Z" style="stroke: rgb(0, 68, 27); fill: rgb(0, 68, 27); fill-opacity: 0.6; stroke-width: 2px;"><title>User.Effects
1</title></path><path transform="translate(500,300)" d="M7.105427357601002e-15,-179.80446798710634A30.004058996320747,30.004058996320747,0,1,1,58.38241531604396,-170.06216595701497L46.0513783877336,-134.1430824937429A23.666856989860424,23.666856989860424,0,0,1,7.105427357601002e-15,-141.82769839609372Z" style="stroke: rgb(55, 135, 192); fill: rgb(55, 135, 192); fill-opacity: 0.6; stroke-width: 2px;"><title>Evaluation
2</title></path><path transform="translate(500,300)" d="M58.38241531604396,-170.06216595701497A30.004058996320747,30.004058996320747,0,1,1,110.43819003608316,-141.89098945909262L87.11237536639679,-111.9219821588115A23.666856989860424,23.666856989860424,0,0,1,46.051378387733564,-134.14308249374292Z" style="stroke: rgb(55, 135, 192); fill: rgb(55, 135, 192); fill-opacity: 0.6; stroke-width: 2px;"><title>Interactivity
2</title></path><path transform="translate(500,300)" d="M98.08431610205949,-126.01873190417638A46.086400553388394,46.086400553388394,0,0,1,171.7342033505803,-124.80551897434808A212.29473419497438,212.29473419497438,0,0,1,183.27840903840035,-107.13579675938215A46.086400553388394,46.086400553388394,0,0,1,154.80461434515226,-39.20185242299248L154.80461434515226,-39.20185242299248A46.086400553388394,46.086400553388394,0,0,1,103.70373467107507,-60.620245991885255A120.1219330881976,120.1219330881976,0,0,0,97.171720071433,-70.6182386300061A46.086400553388394,46.086400553388394,0,0,1,98.08431610205949,-126.01873190417636Z" style="stroke: rgb(55, 135, 192); fill: rgb(55, 135, 192); fill-opacity: 0.6; stroke-width: 2px;"><title>Representation
2</title></path><path transform="translate(500,300)" d="M154.8046143451523,-39.20185242299247A46.086400553388394,46.086400553388394,0,0,1,212.17955308073695,6.992240082660666A212.29473419497438,212.29473419497438,0,0,1,91.63486263871299,191.49962432364987A46.086400553388394,46.086400553388394,0,0,1,26.28429449317077,157.51314141665029L26.28429449317077,157.51314141665029A46.086400553388394,46.086400553388394,0,0,1,51.84941058558877,108.35551407645322A120.1219330881976,120.1219330881976,0,0,0,120.05676059039673,3.9563929766368218A46.086400553388394,46.086400553388394,0,0,1,154.8046143451523,-39.20185242299246Z" style="stroke: rgb(55, 135, 192); fill: rgb(55, 135, 192); fill-opacity: 0.6; stroke-width: 2px;"><title>Data.Type
2</title></path><path transform="translate(500,300)" d="M26.284294493170798,157.51314141665029A46.086400553388394,46.086400553388394,0,0,1,-24.49000665377847,210.87743772393645A212.29473419497438,212.29473419497438,0,0,1,-45.30872155369875,207.40340864625205A46.086400553388394,46.086400553388394,0,0,1,-76.00457232832645,140.44414847594612L-76.00457232832645,140.44414847594612A46.086400553388394,46.086400553388394,0,0,1,-25.636863954367527,117.35429270133527A120.1219330881976,120.1219330881976,0,0,0,-13.857088597840193,119.31998954256167A46.086400553388394,46.086400553388394,0,0,1,26.284294493170798,157.51314141665029Z" style="stroke: rgb(55, 135, 192); fill: rgb(55, 135, 192); fill-opacity: 0.6; stroke-width: 2px;"><title>Display
2</title></path><path transform="translate(500,300)" d="M-85.57746779488116,158.13330994430757A30.00405899632069,30.00405899632069,0,1,1,-132.28644634397565,121.77825266363777L-104.34602890574344,96.05728646976797A23.666856989860364,23.666856989860364,0,0,1,-67.50252331206913,124.73373793339505Z" style="stroke: rgb(55, 135, 192); fill: rgb(55, 135, 192); fill-opacity: 0.6; stroke-width: 2px;"><title>Animation
2</title></path><path transform="translate(500,300)" d="M-132.28644634397577,121.77825266363772A30.004058996320687,30.004058996320687,0,1,1,-164.6601357959951,72.22663212258212L-129.8820231720208,56.97153753477218A23.666856989860356,23.666856989860356,0,0,1,-104.34602890574348,96.05728646976789Z" style="stroke: rgb(55, 135, 192); fill: rgb(55, 135, 192); fill-opacity: 0.6; stroke-width: 2px;"><title>Taxonomy
2</title></path><path transform="translate(500,300)" d="M-164.66013579599513,72.226632122582A30.004058996320747,30.004058996320747,0,1,1,-179.19034456926437,14.848135279376226L-141.34328490037393,11.712038503396826A23.666856989860424,23.666856989860424,0,0,1,-129.88202317202087,56.97153753477221Z" style="stroke: rgb(121, 110, 178); fill: rgb(121, 110, 178); fill-opacity: 0.6; stroke-width: 2px;"><title>Decision
2</title></path><path transform="translate(500,300)" d="M-159.14569401604842,13.187188180036685A46.086400553388394,46.086400553388394,0,0,1,-208.13481564057275,-41.82048164691102A212.29473419497438,212.29473419497438,0,0,1,-202.9534562834877,-62.28120703311127A46.086400553388394,46.086400553388394,0,0,1,-133.6880526688766,-87.3427640365766L-133.6880526688766,-87.3427640365766A46.086400553388394,46.086400553388394,0,0,1,-114.83639284860169,-35.24034174588904A120.1219330881976,120.1219330881976,0,0,0,-117.76814197727322,-23.663126253017353A46.086400553388394,46.086400553388394,0,0,1,-159.14569401604842,13.187188180036685Z" style="stroke: rgb(121, 110, 178); fill: rgb(121, 110, 178); fill-opacity: 0.6; stroke-width: 2px;"><title>Comprehension
2</title></path><path transform="translate(500,300)" d="M-150.52627324063354,-98.34372258773053A30.004058996320715,30.004058996320715,0,1,1,-110.43819003608337,-141.8909894590925L-87.11237536639689,-111.92198215881137A23.66685698986039,23.66685698986039,0,0,1,-118.7333947863379,-77.57239840848644Z" style="stroke: rgb(121, 110, 178); fill: rgb(121, 110, 178); fill-opacity: 0.6; stroke-width: 2px;"><title>Affect
2</title></path><path transform="translate(500,300)" d="M-110.4381900360832,-141.89098945909245A30.004058996320843,30.004058996320843,0,1,1,-58.38241531604385,-170.0621659570149L-46.05137838773363,-134.143082493743A23.666856989860527,23.666856989860527,0,0,1,-87.112375366397,-111.92198215881146Z" style="stroke: rgb(56, 160, 85); fill: rgb(56, 160, 85); fill-opacity: 0.6; stroke-width: 2px;"><title>Context
2</title></path><path transform="translate(500,300)" d="M-58.38241531604396,-170.06216595701497A30.004058996320747,30.004058996320747,0,1,1,-1.4210854715202004e-14,-179.80446798710634L-2.4868995751603507e-14,-141.82769839609372A23.666856989860424,23.666856989860424,0,0,1,-46.05137838773362,-134.1430824937429Z" style="stroke: rgb(56, 160, 85); fill: rgb(56, 160, 85); fill-opacity: 0.6; stroke-width: 2px;"><title>General
2</title></path><path transform="translate(500,300)" d="M152.4008576199153,-195.80462587297794A38.85263290251281,38.85263290251281,0,0,1,211.38068622472056,-198.54018608625861A290,290,0,0,1,215.3177494061537,-194.263395395707A38.85263290251281,38.85263290251281,0,0,1,207.72101687565703,-135.7109135798797L207.72101687565703,-135.7109135798797A38.85263290251281,38.85263290251281,0,0,1,157.62353233668796,-142.2106754804994A212.29473419497438,212.29473419497438,0,0,0,154.74140205527016,-145.34150355932078A38.85263290251281,38.85263290251281,0,0,1,152.4008576199153,-195.80462587297794Z" style="stroke: rgb(171, 207, 230); fill: rgb(171, 207, 230); fill-opacity: 0.6; stroke-width: 2px;"><title>Intrinsic
3</title></path><path transform="translate(500,300)" d="M207.72101687565706,-135.71091357987962A38.85263290251281,38.85263290251281,0,0,1,264.39339063185986,-119.14753455354727A290,290,0,0,1,266.7284612034024,-113.82410985404219A38.85263290251281,38.85263290251281,0,0,1,240.5313808292545,-60.91081802861207L240.5313808292545,-60.91081802861207A38.85263290251281,38.85263290251281,0,0,1,195.25878542555463,-83.32503153946016A212.29473419497438,212.29473419497438,0,0,0,193.54939512792666,-87.22204888976498A38.85263290251281,38.85263290251281,0,0,1,207.72101687565706,-135.71091357987962Z" style="stroke: rgb(171, 207, 230); fill: rgb(171, 207, 230); fill-opacity: 0.6; stroke-width: 2px;"><title>Extrinsic
3</title></path><path transform="translate(500,300)" d="M240.53138082925454,-60.910818028612056A38.85263290251281,38.85263290251281,0,0,1,288.75496867788763,-26.84339888747578A290,290,0,0,1,289.2350055107599,-21.05021584665345A38.85263290251281,38.85263290251281,0,0,1,247.27643744108386,20.489909784777346L247.27643744108386,20.489909784777346A38.85263290251281,38.85263290251281,0,0,1,211.7347193613404,-15.409827510041827A212.29473419497438,212.29473419497438,0,0,0,211.38330801017347,-19.650731833470143A38.85263290251281,38.85263290251281,0,0,1,240.53138082925454,-60.910818028612056Z" style="stroke: rgb(171, 207, 230); fill: rgb(171, 207, 230); fill-opacity: 0.6; stroke-width: 2px;"><title>Point
3</title></path><path transform="translate(500,300)" d="M247.27643744108383,20.489909784777325A38.85263290251281,38.85263290251281,0,0,1,281.8254653726858,68.36963556630282A290,290,0,0,1,280.3984490275072,74.0047956754727A38.85263290251281,38.85263290251281,0,0,1,227.22525516691636,99.670237939278L227.22525516691638,99.670237939278A38.85263290251281,38.85263290251281,0,0,1,205.2659110516472,54.175270438199504A212.29473419497438,212.29473419497438,0,0,0,206.3105595195493,50.050046929501804A38.85263290251281,38.85263290251281,0,0,1,247.27643744108383,20.489909784777325Z" style="stroke: rgb(171, 207, 230); fill: rgb(171, 207, 230); fill-opacity: 0.6; stroke-width: 2px;"><title>Line
3</title></path><path transform="translate(500,300)" d="M227.22525516691636,99.67023793927797A38.85263290251281,38.85263290251281,0,0,1,244.35579992169522,156.17375914227213A290,290,0,0,1,241.17636976190582,161.0402392834427A38.85263290251281,38.85263290251281,0,0,1,182.5506907323077,168.0497492699704L182.5506907323077,168.04974926997036A38.85263290251281,38.85263290251281,0,0,1,176.55335625073326,117.88963721852943A212.29473419497438,212.29473419497438,0,0,0,178.880860666816,114.32712650116763A38.85263290251281,38.85263290251281,0,0,1,227.22525516691636,99.67023793927797Z" style="stroke: rgb(171, 207, 230); fill: rgb(171, 207, 230); fill-opacity: 0.6; stroke-width: 2px;"><title>Polygon
3</title></path><path transform="translate(500,300)" d="M182.55069073230777,168.0497492699703A38.85263290251281,38.85263290251281,0,0,1,180.4063919782942,227.05403262962332A290,290,0,0,1,175.81908859564913,230.6244741682792A38.85263290251281,38.85263290251281,0,0,1,118.09392639103746,218.21846270673524L118.09392639103746,218.21846270673524A38.85263290251281,38.85263290251281,0,0,1,128.7085057924689,168.82883256003643A212.29473419497438,212.29473419497438,0,0,0,132.0666449382977,166.21508794828594A38.85263290251281,38.85263290251281,0,0,1,182.55069073230777,168.0497492699703Z" style="stroke: rgb(171, 207, 230); fill: rgb(171, 207, 230); fill-opacity: 0.6; stroke-width: 2px;"><title>Network
3</title></path><path transform="translate(500,300)" d="M118.09392639103746,218.21846270673524A38.85263290251281,38.85263290251281,0,0,1,96.90715217045216,273.32947857524044A290,290,0,0,1,91.40908106580697,275.21696876955957A38.85263290251281,38.85263290251281,0,0,1,40.83985270922991,244.73981970090392L40.8398527092299,244.73981970090392A38.85263290251281,38.85263290251281,0,0,1,66.91609161335292,201.4728042444145A212.29473419497438,212.29473419497438,0,0,0,70.94095900557957,200.09106552338488A38.85263290251281,38.85263290251281,0,0,1,118.09392639103746,218.21846270673524Z" style="stroke: rgb(171, 207, 230); fill: rgb(171, 207, 230); fill-opacity: 0.6; stroke-width: 2px;"><title>Field
3</title></path><path transform="translate(500,300)" d="M40.839852709229795,244.73981970090398A38.85263290251281,38.85263290251281,0,0,1,2.906518755547156,289.9854343733899A290,290,0,0,1,-2.906518755546751,289.9854343733899A38.85263290251281,38.85263290251281,0,0,1,-40.83985270922944,244.739819700904L-40.83985270922944,244.739819700904A38.85263290251281,38.85263290251281,0,0,1,-2.127719402212078,212.28407141625172A212.29473419497438,212.29473419497438,0,0,0,2.127719402212396,212.28407141625175A38.85263290251281,38.85263290251281,0,0,1,40.839852709229795,244.73981970090398Z" style="stroke: rgb(171, 207, 230); fill: rgb(171, 207, 230); fill-opacity: 0.6; stroke-width: 2px;"><title>Coincident
3</title></path><path transform="translate(500,300)" d="M-40.839852709229454,244.739819700904A38.85263290251281,38.85263290251281,0,0,1,-91.40908106580643,275.21696876955974A290,290,0,0,1,-96.90715217045181,273.32947857524056A38.85263290251281,38.85263290251281,0,0,1,-118.0939263910372,218.21846270673544L-118.0939263910372,218.21846270673544A38.85263290251281,38.85263290251281,0,0,1,-70.94095900557933,200.091065523385A212.29473419497438,212.29473419497438,0,0,0,-66.91609161335258,201.47280424441465A38.85263290251281,38.85263290251281,0,0,1,-40.839852709229454,244.739819700904Z" style="stroke: rgb(171, 207, 230); fill: rgb(171, 207, 230); fill-opacity: 0.6; stroke-width: 2px;"><title>Adjacent
3</title></path><path transform="translate(500,300)" d="M-247.27643744108386,20.48990978477753A38.85263290251281,38.85263290251281,0,0,1,-289.23500551075995,-21.050215846653234A290,290,0,0,1,-288.75496867788763,-26.843398887475644A38.85263290251281,38.85263290251281,0,0,1,-240.53138082925452,-60.91081802861192L-240.53138082925452,-60.91081802861192A38.85263290251281,38.85263290251281,0,0,1,-211.38330801017344,-19.650731833470026A212.29473419497438,212.29473419497438,0,0,0,-211.73471936134044,-15.409827510041666A38.85263290251281,38.85263290251281,0,0,1,-247.27643744108386,20.48990978477753Z" style="stroke: rgb(198, 198, 225); fill: rgb(198, 198, 225); fill-opacity: 0.6; stroke-width: 2px;"><title>Data
3</title></path><path transform="translate(500,300)" d="M-240.53138082925454,-60.91081802861193A38.85263290251281,38.85263290251281,0,0,1,-266.72846120340245,-113.824109854042A290,290,0,0,1,-264.39339063186003,-119.147534553547A38.85263290251281,38.85263290251281,0,0,1,-207.7210168756572,-135.7109135798794L-207.7210168756572,-135.7109135798794A38.85263290251281,38.85263290251281,0,0,1,-193.54939512792672,-87.22204888976476A212.29473419497438,212.29473419497438,0,0,0,-195.2587854255547,-83.32503153946003A38.85263290251281,38.85263290251281,0,0,1,-240.53138082925454,-60.91081802861193Z" style="stroke: rgb(198, 198, 225); fill: rgb(198, 198, 225); fill-opacity: 0.6; stroke-width: 2px;"><title>Map
3</title></path></svg>